<svg version="1.1" id="Layer_1" xmlns="http://www.w3.org/2000/svg" xmlns:xlink="http://www.w3.org/1999/xlink" x="0px" y="0px"
	 width="100%" viewBox="0 0 512 512" enable-background="new 0 0 512 512" xml:space="preserve">
<path fill="#000000" opacity="1.000000" stroke="none" 
	d="
M120.658310,303.999939 
	C120.660416,243.690002 120.657532,183.880112 120.668930,124.070206 
	C120.671928,108.313934 130.637741,98.139145 146.378815,97.776642 
	C148.044037,97.738289 149.718567,97.654556 151.375275,97.776093 
	C157.502426,98.225609 162.531647,98.340485 164.778046,90.237961 
	C166.460236,84.170593 172.754135,81.498505 179.306702,81.752739 
	C186.570724,82.034599 191.673340,86.014160 193.957306,92.690247 
	C195.362274,96.797020 197.395004,97.941101 201.493179,97.851028 
	C213.149826,97.594826 224.815659,97.703758 236.477341,97.766510 
	C239.376984,97.782112 241.229065,97.526283 242.120789,93.889397 
	C243.940826,86.466415 250.280106,81.814522 257.336731,81.693977 
	C264.959991,81.563751 270.949463,85.753067 273.404602,93.434227 
	C274.425201,96.627342 275.893036,97.913376 279.387390,97.849785 
	C291.378784,97.631569 303.377747,97.664825 315.370941,97.822647 
	C318.745209,97.867058 320.344177,96.786423 321.332275,93.435120 
	C323.503174,86.072166 329.309601,81.791298 336.306458,81.697777 
	C343.637573,81.599785 350.094116,85.802010 352.241028,92.973068 
	C353.455078,97.028229 355.558228,98.125786 359.408112,97.806870 
	C362.717194,97.532753 366.070526,97.659920 369.398773,97.772751 
	C383.176300,98.239792 393.083466,108.339127 393.294403,122.174690 
	C393.398529,129.003845 393.400177,135.836838 393.296509,142.665787 
	C393.252686,145.550583 394.181366,146.825729 397.282623,146.939789 
	C414.194366,147.561844 423.613708,161.316055 423.511749,176.067566 
	C423.048828,243.038116 423.289124,310.013702 423.351532,376.987396 
	C423.355194,380.914154 422.721680,384.520264 420.996918,388.060883 
	C414.288910,401.831055 407.713196,415.665619 401.041077,429.453369 
	C400.116730,431.363525 399.299133,433.624420 396.552002,433.518250 
	C393.895782,433.415619 393.074799,431.224274 392.148346,429.282745 
	C390.089569,424.968292 388.435425,420.427551 384.675476,416.165375 
	C376.538605,425.031860 365.933899,424.306885 355.375732,424.296051 
	C286.736206,424.225800 218.096588,424.244781 149.457031,424.299896 
	C137.903229,424.309174 129.259857,419.541534 123.649239,409.427704 
	C121.421692,405.412262 120.625130,401.061554 120.633072,396.461670 
	C120.685982,365.807831 120.659409,335.153870 120.658310,303.999939 
M370.009491,351.500000 
	C370.003510,318.043823 370.009460,284.587646 369.987549,251.131485 
	C369.971619,226.803986 369.925537,202.476517 369.877502,178.149063 
	C369.866302,172.486618 370.100647,166.912155 371.351990,161.298401 
	C373.208038,152.971771 369.048004,148.132477 360.580872,148.123810 
	C291.265106,148.052963 221.949356,148.006897 152.633606,147.990738 
	C144.882233,147.988937 143.233948,149.647430 143.210449,157.412384 
	C143.150436,177.240814 143.181946,197.069534 143.183212,216.898148 
	C143.186798,273.384796 143.190948,329.871460 143.200943,386.358093 
	C143.203308,399.665161 145.351486,401.856079 158.422791,401.890869 
	C166.587479,401.912598 174.752258,401.902893 182.917007,401.901367 
	C241.403214,401.890381 299.889404,401.889374 358.375610,401.853790 
	C367.320862,401.848328 372.958374,396.851868 371.370117,388.848541 
	C368.961426,376.710815 370.448547,364.606567 370.009491,351.500000 
M389.054871,231.500000 
	C389.033966,242.823441 389.001160,254.146866 388.994415,265.470306 
	C388.976074,296.261475 388.930267,327.052734 389.006775,357.843689 
	C389.016144,361.615570 387.800110,363.428314 383.837616,363.285828 
	C381.997498,363.219604 379.150299,362.443787 378.686676,364.996460 
	C377.920563,369.214996 377.803955,373.592133 378.896606,378.071533 
	C381.084900,377.115540 380.701843,375.795715 380.769257,374.711426 
	C381.313171,365.964935 381.505859,365.775208 390.497437,365.773621 
	C391.663086,365.773438 392.837158,365.882782 393.992828,365.779266 
	C397.959534,365.424011 402.090118,366.584656 406.516510,364.717285 
	C403.712097,362.417206 400.943817,363.232117 398.421814,363.068420 
	C391.787567,362.637878 389.899414,360.336060 391.807068,354.128082 
	C393.119537,349.857117 393.021179,345.646027 392.594635,341.295807 
	C391.373596,328.843109 391.336945,316.346375 392.440521,303.902100 
	C393.002899,297.560455 393.116394,291.266296 392.613800,284.968781 
	C391.912598,276.182068 390.941345,267.431244 391.010590,258.584473 
	C391.133087,242.932617 391.007355,227.278580 390.931091,211.625732 
	C390.921326,209.620270 391.243439,207.479385 389.054474,205.735352 
	C389.054474,213.990234 389.054474,222.245117 389.054871,231.500000 
M406.068848,387.336456 
	C397.900757,387.336456 389.732666,387.336456 380.250458,387.336456 
	C383.684998,394.065826 386.355774,399.353058 389.077972,404.613708 
	C390.951721,408.234711 400.177277,409.708801 402.469849,406.348633 
	C406.258759,400.795349 408.973145,394.601471 411.233887,388.445404 
	C409.596710,387.096893 408.212952,387.487244 406.068848,387.336456 
M379.431854,183.724762 
	C377.640686,185.527618 378.630188,187.827744 378.307190,189.896423 
	C377.568573,194.626984 379.680542,195.926361 384.199585,195.740662 
	C392.013245,195.419586 399.850342,195.714325 407.676361,195.632324 
	C413.172699,195.574753 414.541412,194.268341 414.416473,188.759247 
	C414.322113,184.599335 411.093140,183.151398 407.667114,183.105591 
	C398.518951,182.983200 389.365540,183.254807 379.431854,183.724762 
M401.012573,281.957397 
	C398.567474,281.671814 398.562042,281.754333 397.515869,285.073914 
	C393.890686,296.576538 394.711700,308.003967 397.947662,319.416962 
	C398.531799,321.477173 398.965851,323.579956 399.429688,325.499634 
	C400.583984,326.517944 401.298096,324.602386 402.451111,325.469971 
	C403.379242,327.544403 403.084991,329.812134 402.725647,332.067078 
	C398.760101,333.143921 394.118286,341.338409 395.567444,345.512024 
	C397.020844,349.697906 400.515076,345.659698 402.890076,346.706085 
	C403.004425,346.756470 403.338562,346.308044 403.668518,346.000397 
	C403.668518,324.395203 403.668518,302.709229 403.668518,280.903656 
	C402.549316,281.323700 402.868988,283.329987 401.012573,281.957397 
M328.521088,124.063797 
	C329.367798,125.479103 329.964172,127.153297 331.109009,128.260269 
	C334.303101,131.348785 337.953156,131.418884 341.566925,128.965408 
	C344.562134,126.931908 346.116119,123.503464 344.056274,120.759193 
	C339.660461,114.902710 340.868439,108.450325 340.715179,102.087135 
	C340.642456,99.067299 340.360168,95.809196 336.745239,95.728188 
	C333.048981,95.645355 333.327911,99.083565 333.270081,101.738945 
	C333.124084,108.441093 334.478607,115.462143 328.885529,120.958252 
	C328.410004,121.425507 328.564545,122.533928 328.521088,124.063797 
M175.123306,111.183540 
	C175.512802,114.230652 173.955643,116.457726 172.393143,118.915146 
	C170.204330,122.357658 170.540710,126.062973 173.869812,128.766556 
	C177.298019,131.550613 181.133148,131.298721 184.393021,128.530014 
	C187.421677,125.957672 188.195953,122.001961 185.680969,119.148552 
	C182.618317,115.673790 182.664566,111.988304 182.670181,108.008308 
	C182.674179,105.180046 182.761307,102.339462 182.531143,99.527306 
	C182.350006,97.314407 180.900177,95.681190 178.663956,95.660652 
	C176.205536,95.638054 175.347412,97.578758 175.282104,99.778450 
	C175.178467,103.270821 175.172943,106.766106 175.123306,111.183540 
M256.936890,95.882973 
	C254.356140,97.102875 254.391693,99.435051 254.276489,101.811325 
	C253.971817,108.097122 255.415375,114.483284 250.788101,120.294945 
	C248.553268,123.101799 250.111130,127.140068 253.533630,129.302811 
	C257.250916,131.651840 261.032593,131.103760 263.941742,128.023392 
	C266.582245,125.227463 267.030548,121.571724 264.323181,118.562805 
	C262.092590,116.083710 261.584259,113.447517 261.678558,110.370491 
	C261.774963,107.224396 261.691010,104.072380 261.666748,100.923103 
	C261.645477,98.156105 260.752502,96.041901 256.936890,95.882973 
M378.900421,167.504379 
	C378.382996,169.501465 377.541748,171.539688 380.206116,174.154099 
	C381.755737,161.476471 389.902313,158.048248 401.328278,158.654572 
	C393.886841,153.001617 384.045532,157.027100 378.900421,167.504379 
M293.034943,119.352997 
	C291.682770,119.574982 290.001770,118.813850 288.716309,121.535942 
	C294.390656,121.671684 299.600189,122.023140 306.043701,120.859367 
	C301.373352,118.724098 297.543152,119.677925 293.034943,119.352997 
M222.286606,119.846367 
	C218.687790,119.686775 215.027283,118.539787 210.116455,120.704803 
	C216.365768,122.051971 221.151794,121.749252 225.948074,120.157784 
	C224.976990,120.070183 224.005905,119.982590 222.286606,119.846367 
z"/>
<path fill="#000000" opacity="1.000000" stroke="none" 
	d="
M407.649963,430.154358 
	C415.717255,430.035461 423.348602,429.966370 430.979889,429.971130 
	C432.290436,429.971954 433.636566,430.151917 434.903625,430.486450 
	C437.311218,431.122131 438.510803,432.784454 438.256683,435.292236 
	C438.001373,437.811737 436.491241,439.237854 433.983398,439.255737 
	C425.190186,439.318512 416.396179,439.302429 407.602631,439.277679 
	C404.898560,439.270081 403.143921,437.853943 402.819489,435.187317 
	C402.437622,432.048523 404.488159,430.768829 407.649963,430.154358 
z"/>
<path fill="#000000" opacity="1.000000" stroke="none" 
	d="
M103.125870,430.483276 
	C106.025146,431.841370 106.842697,433.839905 105.948906,436.384979 
	C105.111549,438.769348 103.115646,439.412354 100.758484,439.340729 
	C98.109901,439.260284 95.436493,439.451538 92.815895,439.154266 
	C90.365250,438.876343 89.067719,437.030701 88.918053,434.676025 
	C88.771126,432.364471 90.213737,430.981873 92.380386,430.473846 
	C95.807266,429.670288 99.267258,429.626099 103.125870,430.483276 
z"/>
<path fill="#000000" opacity="1.000000" stroke="none" 
	d="
M119.772278,430.557678 
	C120.978729,430.292480 121.798492,430.034821 122.615654,430.042847 
	C125.530083,430.071472 128.459671,430.282318 129.333344,433.826172 
	C129.870819,436.006409 129.153259,438.080872 126.964081,438.718506 
	C123.962044,439.592896 120.532570,440.399353 118.081001,437.690582 
	C115.772034,435.139343 116.195198,432.511688 119.772278,430.557678 
z"/>
<path fill="#000000" opacity="1.000000" stroke="none" 
	d="
M362.340179,270.040222 
	C362.327667,313.562561 344.027985,346.598877 306.431274,367.351990 
	C271.154419,386.824524 235.189545,384.879028 201.065186,363.908417 
	C173.125671,346.738678 157.005890,320.757385 151.944962,288.487549 
	C144.457367,240.744568 172.691422,193.296707 217.932983,174.578934 
	C280.443817,148.716370 350.236816,190.868362 361.095215,255.163177 
	C361.893982,259.892792 362.752167,264.682800 362.340179,270.040222 
M321.969482,279.287262 
	C319.558289,272.170929 322.506622,267.811951 329.843628,267.663666 
	C331.509033,267.630035 333.176849,267.597961 334.841064,267.648407 
	C338.019409,267.744843 338.813965,266.117157 338.472412,263.205780 
	C334.570587,229.946777 309.459717,201.351089 276.643860,192.869965 
	C263.924347,189.582657 263.442566,191.058578 264.202484,201.799454 
	C264.559540,206.845825 261.026917,209.695114 256.367249,209.287811 
	C251.908661,208.898087 249.738663,205.669617 249.671783,199.326492 
	C249.578003,190.432816 249.158447,189.935104 240.707947,192.013824 
	C205.407455,200.697327 183.847702,222.909195 175.988052,258.364685 
	C174.039490,267.154755 174.431091,267.490173 183.003143,267.672150 
	C183.835495,267.689819 184.681900,267.639954 185.497009,267.773071 
	C189.186722,268.375702 191.608078,270.489288 192.169083,274.201721 
	C192.765518,278.148804 190.970749,280.928345 187.319412,282.554077 
	C185.089172,283.547089 182.732849,283.424164 180.429337,283.291412 
	C176.146530,283.044556 174.772522,284.610352 175.761139,288.950226 
	C180.076904,307.895752 189.283600,323.982971 203.813766,336.839874 
	C216.638687,348.187897 231.723648,354.518341 248.799667,356.146545 
	C250.297134,353.074738 249.543060,350.206116 249.639877,347.437897 
	C249.838608,341.754974 252.235275,338.800629 256.970917,338.698395 
	C261.829590,338.593475 264.227814,341.350342 264.358978,347.199463 
	C264.377625,348.032104 264.367615,348.865387 264.376617,349.698303 
	C264.440735,355.645782 265.338715,356.426514 271.104065,355.551147 
	C302.202576,350.829254 330.722046,323.299835 336.942627,291.998260 
	C338.325500,285.039703 337.225983,283.510315 330.262451,283.353821 
	C327.092682,283.282562 324.311523,282.737366 321.969482,279.287262 
z"/>
<path fill="#000000" opacity="1.000000" stroke="none" 
	d="
M245.250580,286.733978 
	C242.459183,283.670807 240.737167,280.435455 240.543533,276.651306 
	C240.304611,271.982422 237.961945,268.655121 234.734390,265.517639 
	C229.004761,259.947845 223.498337,254.146317 217.965912,248.377136 
	C216.476486,246.824005 215.003830,245.171860 213.915161,243.333237 
	C210.907822,238.254211 211.998932,232.317673 216.338364,228.969482 
	C220.984177,225.384903 226.945145,225.784897 231.223434,230.116699 
	C238.595398,237.580826 245.849655,245.161514 253.243744,252.603409 
	C258.131348,257.522614 265.823456,258.258087 271.561188,254.499100 
	C281.728424,247.838104 291.787445,241.007248 302.058350,234.510803 
	C309.464294,229.826447 317.500122,232.614197 319.738586,240.275742 
	C321.145721,245.091843 319.030457,249.701447 313.584320,253.202438 
	C302.240479,260.494690 290.843262,267.703827 279.477814,274.962494 
	C277.659943,276.123505 275.708282,277.197876 275.129486,279.540405 
	C271.953461,292.395325 254.300049,295.707245 245.250580,286.733978 
M256.289001,277.094513 
	C258.812286,278.178192 260.509796,277.106232 261.370148,274.808258 
	C261.971771,273.201447 260.892853,271.953583 259.592346,271.087616 
	C258.174591,270.143585 256.734192,270.315277 255.538849,271.504547 
	C253.776047,273.258392 254.079361,275.010742 256.289001,277.094513 
z"/>
<path fill="#000000" opacity="1.000000" stroke="none" 
	d="
M258.595215,232.108978 
	C252.017014,231.873444 249.128937,228.810745 249.696854,223.179031 
	C250.137482,218.809341 254.155792,215.939194 258.695099,216.805252 
	C262.261353,217.485641 264.250977,219.870453 264.731018,223.277618 
	C265.356598,227.717773 263.078827,230.532639 258.595215,232.108978 
z"/>
<path fill="#000000" opacity="1.000000" stroke="none" 
	d="
M249.996262,326.373718 
	C249.091232,321.725494 250.336670,318.413544 254.530197,316.755890 
	C257.814819,315.457520 260.737549,316.389557 262.978943,319.033539 
	C265.956360,322.545715 265.197601,327.660309 261.443268,330.298950 
	C257.277283,333.226898 253.223984,331.962646 249.996262,326.373718 
z"/>
</svg>
